<?xml version="1.0" standalone="no"?>
<!DOCTYPE svg PUBLIC "-//W3C//DTD SVG 20010904//EN"
 "http://www.w3.org/TR/2001/REC-SVG-20010904/DTD/svg10.dtd">
<svg version="1.0" xmlns="http://www.w3.org/2000/svg"
 width="128.000000pt" height="128.000000pt" viewBox="0 0 128.000000 128.000000"
 preserveAspectRatio="xMidYMid meet">
<metadata>
Created by potrace 1.11, written by Peter Selinger 2001-2013
</metadata>
<g transform="translate(0.000000,128.000000) scale(0.100000,-0.100000)"
fill="#000000" stroke="none">
<path d="M400 1270 c0 -5 9 -33 20 -61 12 -29 19 -57 16 -64 -2 -7 -27 -15
-55 -18 -71 -8 -114 -31 -174 -93 -67 -69 -122 -161 -150 -249 -17 -55 -22
-94 -22 -180 1 -146 29 -237 110 -350 110 -155 272 -242 465 -252 54 -3 114 0
140 6 25 7 53 14 64 16 35 8 146 64 183 92 297 221 334 649 78 910 -58 59 -80
74 -124 87 -30 9 -67 16 -83 16 -35 0 -36 19 -8 86 11 26 18 49 15 52 -2 3
-56 -18 -120 -47 -86 -39 -119 -50 -132 -42 -61 32 -223 98 -223 91z"/>
</g>
</svg>
